<mxfile host="Electron" agent="Mozilla/5.0 (Windows NT 10.0; Win64; x64) AppleWebKit/537.36 (KHTML, like Gecko) draw.io/27.0.2 Chrome/134.0.6998.205 Electron/35.3.0 Safari/537.36" version="27.0.2">
  <diagram name="Page-1" id="PzDUp2yMTqfAayUG_l8s">
    <mxGraphModel dx="1071" dy="885" grid="1" gridSize="10" guides="1" tooltips="1" connect="1" arrows="0" fold="1" page="1" pageScale="1" pageWidth="850" pageHeight="1100" math="0" shadow="0">
      <root>
        <mxCell id="0" />
        <mxCell id="1" parent="0" />
        <mxCell id="XpY3fq0qodBO46SI2XsH-46" style="edgeStyle=orthogonalEdgeStyle;rounded=0;orthogonalLoop=1;jettySize=auto;html=1;exitX=0.5;exitY=0.5;exitDx=0;exitDy=0;exitPerimeter=0;entryX=0;entryY=0.5;entryDx=0;entryDy=0;startArrow=none;startFill=0;curved=1;endArrow=none;labelBackgroundColor=none;strokeColor=#0B4D6A;fontColor=default;" edge="1" parent="1" source="XpY3fq0qodBO46SI2XsH-1" target="XpY3fq0qodBO46SI2XsH-13">
          <mxGeometry relative="1" as="geometry" />
        </mxCell>
        <mxCell id="XpY3fq0qodBO46SI2XsH-47" style="edgeStyle=orthogonalEdgeStyle;rounded=0;orthogonalLoop=1;jettySize=auto;html=1;exitX=0.5;exitY=0.5;exitDx=0;exitDy=0;exitPerimeter=0;entryX=0;entryY=0.5;entryDx=0;entryDy=0;curved=1;endArrow=none;startFill=0;labelBackgroundColor=none;strokeColor=#0B4D6A;fontColor=default;" edge="1" parent="1" source="XpY3fq0qodBO46SI2XsH-1" target="XpY3fq0qodBO46SI2XsH-6">
          <mxGeometry relative="1" as="geometry" />
        </mxCell>
        <mxCell id="XpY3fq0qodBO46SI2XsH-48" style="edgeStyle=orthogonalEdgeStyle;rounded=0;orthogonalLoop=1;jettySize=auto;html=1;exitX=0.5;exitY=0.5;exitDx=0;exitDy=0;exitPerimeter=0;entryX=0;entryY=0.5;entryDx=0;entryDy=0;curved=1;endArrow=none;startFill=0;labelBackgroundColor=none;strokeColor=#0B4D6A;fontColor=default;" edge="1" parent="1" source="XpY3fq0qodBO46SI2XsH-1" target="XpY3fq0qodBO46SI2XsH-8">
          <mxGeometry relative="1" as="geometry" />
        </mxCell>
        <mxCell id="XpY3fq0qodBO46SI2XsH-49" style="rounded=0;orthogonalLoop=1;jettySize=auto;html=1;exitX=0.5;exitY=0.5;exitDx=0;exitDy=0;exitPerimeter=0;entryX=0;entryY=0.5;entryDx=0;entryDy=0;edgeStyle=orthogonalEdgeStyle;curved=1;endArrow=none;startFill=0;labelBackgroundColor=none;strokeColor=#0B4D6A;fontColor=default;" edge="1" parent="1" source="XpY3fq0qodBO46SI2XsH-1" target="XpY3fq0qodBO46SI2XsH-12">
          <mxGeometry relative="1" as="geometry" />
        </mxCell>
        <mxCell id="XpY3fq0qodBO46SI2XsH-50" style="edgeStyle=orthogonalEdgeStyle;rounded=0;orthogonalLoop=1;jettySize=auto;html=1;exitX=0.5;exitY=0.5;exitDx=0;exitDy=0;exitPerimeter=0;entryX=0;entryY=0.5;entryDx=0;entryDy=0;curved=1;endArrow=none;startFill=0;labelBackgroundColor=none;strokeColor=#0B4D6A;fontColor=default;" edge="1" parent="1" source="XpY3fq0qodBO46SI2XsH-1" target="XpY3fq0qodBO46SI2XsH-20">
          <mxGeometry relative="1" as="geometry" />
        </mxCell>
        <mxCell id="XpY3fq0qodBO46SI2XsH-51" style="edgeStyle=orthogonalEdgeStyle;rounded=0;orthogonalLoop=1;jettySize=auto;html=1;exitX=0.5;exitY=0.5;exitDx=0;exitDy=0;exitPerimeter=0;entryX=0;entryY=0.5;entryDx=0;entryDy=0;curved=1;endArrow=none;startFill=0;labelBackgroundColor=none;strokeColor=#0B4D6A;fontColor=default;" edge="1" parent="1" source="XpY3fq0qodBO46SI2XsH-1" target="XpY3fq0qodBO46SI2XsH-22">
          <mxGeometry relative="1" as="geometry" />
        </mxCell>
        <mxCell id="XpY3fq0qodBO46SI2XsH-52" style="edgeStyle=orthogonalEdgeStyle;rounded=0;orthogonalLoop=1;jettySize=auto;html=1;exitX=0.5;exitY=0.5;exitDx=0;exitDy=0;exitPerimeter=0;entryX=0;entryY=0.5;entryDx=0;entryDy=0;curved=1;endArrow=none;startFill=0;labelBackgroundColor=none;strokeColor=#0B4D6A;fontColor=default;" edge="1" parent="1" source="XpY3fq0qodBO46SI2XsH-1" target="XpY3fq0qodBO46SI2XsH-24">
          <mxGeometry relative="1" as="geometry" />
        </mxCell>
        <mxCell id="XpY3fq0qodBO46SI2XsH-53" style="edgeStyle=orthogonalEdgeStyle;rounded=0;orthogonalLoop=1;jettySize=auto;html=1;exitX=0.5;exitY=0.5;exitDx=0;exitDy=0;exitPerimeter=0;entryX=0;entryY=0.5;entryDx=0;entryDy=0;curved=1;endArrow=none;startFill=0;labelBackgroundColor=none;strokeColor=#0B4D6A;fontColor=default;" edge="1" parent="1" source="XpY3fq0qodBO46SI2XsH-1" target="XpY3fq0qodBO46SI2XsH-28">
          <mxGeometry relative="1" as="geometry" />
        </mxCell>
        <mxCell id="XpY3fq0qodBO46SI2XsH-1" value="&lt;font style=&quot;font-size: 20px;&quot;&gt;User&lt;/font&gt;" style="shape=umlActor;html=1;verticalLabelPosition=bottom;verticalAlign=top;align=center;labelBackgroundColor=none;fillColor=#09555B;strokeColor=#BAC8D3;fontColor=#EEEEEE;" vertex="1" parent="1">
          <mxGeometry x="20" y="500" width="70" height="100" as="geometry" />
        </mxCell>
        <mxCell id="XpY3fq0qodBO46SI2XsH-41" style="edgeStyle=orthogonalEdgeStyle;rounded=0;orthogonalLoop=1;jettySize=auto;html=1;exitX=0.5;exitY=0.5;exitDx=0;exitDy=0;exitPerimeter=0;entryX=1;entryY=0.5;entryDx=0;entryDy=0;curved=1;endArrow=none;startFill=0;labelBackgroundColor=none;strokeColor=#0B4D6A;fontColor=default;" edge="1" parent="1" source="XpY3fq0qodBO46SI2XsH-4" target="XpY3fq0qodBO46SI2XsH-32">
          <mxGeometry relative="1" as="geometry" />
        </mxCell>
        <mxCell id="XpY3fq0qodBO46SI2XsH-42" style="edgeStyle=orthogonalEdgeStyle;rounded=0;orthogonalLoop=1;jettySize=auto;html=1;exitX=0.5;exitY=0.5;exitDx=0;exitDy=0;exitPerimeter=0;entryX=1;entryY=0.5;entryDx=0;entryDy=0;curved=1;endArrow=none;startFill=0;labelBackgroundColor=none;strokeColor=#0B4D6A;fontColor=default;" edge="1" parent="1" source="XpY3fq0qodBO46SI2XsH-4" target="XpY3fq0qodBO46SI2XsH-30">
          <mxGeometry relative="1" as="geometry" />
        </mxCell>
        <mxCell id="XpY3fq0qodBO46SI2XsH-44" style="edgeStyle=orthogonalEdgeStyle;rounded=0;orthogonalLoop=1;jettySize=auto;html=1;exitX=0.5;exitY=0.5;exitDx=0;exitDy=0;exitPerimeter=0;entryX=1;entryY=0.5;entryDx=0;entryDy=0;curved=1;endArrow=none;startFill=0;labelBackgroundColor=none;strokeColor=#0B4D6A;fontColor=default;" edge="1" parent="1" source="XpY3fq0qodBO46SI2XsH-4" target="XpY3fq0qodBO46SI2XsH-36">
          <mxGeometry relative="1" as="geometry" />
        </mxCell>
        <mxCell id="XpY3fq0qodBO46SI2XsH-45" style="edgeStyle=orthogonalEdgeStyle;rounded=0;orthogonalLoop=1;jettySize=auto;html=1;exitX=0.5;exitY=0.5;exitDx=0;exitDy=0;exitPerimeter=0;entryX=1;entryY=0.5;entryDx=0;entryDy=0;curved=1;endArrow=none;startFill=0;labelBackgroundColor=none;strokeColor=#0B4D6A;fontColor=default;" edge="1" parent="1" source="XpY3fq0qodBO46SI2XsH-4" target="XpY3fq0qodBO46SI2XsH-34">
          <mxGeometry relative="1" as="geometry" />
        </mxCell>
        <mxCell id="XpY3fq0qodBO46SI2XsH-63" style="edgeStyle=orthogonalEdgeStyle;rounded=0;orthogonalLoop=1;jettySize=auto;html=1;exitX=0.5;exitY=0.5;exitDx=0;exitDy=0;exitPerimeter=0;entryX=1;entryY=0.5;entryDx=0;entryDy=0;curved=1;endArrow=none;startFill=0;labelBackgroundColor=none;strokeColor=#0B4D6A;fontColor=default;" edge="1" parent="1" source="XpY3fq0qodBO46SI2XsH-4" target="XpY3fq0qodBO46SI2XsH-38">
          <mxGeometry relative="1" as="geometry" />
        </mxCell>
        <mxCell id="XpY3fq0qodBO46SI2XsH-4" value="&lt;font style=&quot;font-size: 20px;&quot;&gt;Admin&lt;/font&gt;" style="shape=umlActor;html=1;verticalLabelPosition=bottom;verticalAlign=top;align=center;labelBackgroundColor=none;fillColor=#09555B;strokeColor=#BAC8D3;fontColor=#EEEEEE;" vertex="1" parent="1">
          <mxGeometry x="750" y="470" width="90" height="109" as="geometry" />
        </mxCell>
        <mxCell id="XpY3fq0qodBO46SI2XsH-54" style="rounded=0;orthogonalLoop=1;jettySize=auto;html=1;exitX=0.5;exitY=1;exitDx=0;exitDy=0;entryX=0.5;entryY=0;entryDx=0;entryDy=0;dashed=1;labelBackgroundColor=none;strokeColor=#0B4D6A;fontColor=default;" edge="1" parent="1" source="XpY3fq0qodBO46SI2XsH-6" target="XpY3fq0qodBO46SI2XsH-8">
          <mxGeometry relative="1" as="geometry" />
        </mxCell>
        <mxCell id="XpY3fq0qodBO46SI2XsH-6" value="" style="ellipse;whiteSpace=wrap;html=1;labelBackgroundColor=none;fillColor=#09555B;strokeColor=#BAC8D3;fontColor=#EEEEEE;" vertex="1" parent="1">
          <mxGeometry x="202" y="269" width="80" height="40" as="geometry" />
        </mxCell>
        <mxCell id="XpY3fq0qodBO46SI2XsH-7" value="register /&lt;div&gt;login&lt;/div&gt;" style="text;html=1;align=center;verticalAlign=middle;whiteSpace=wrap;rounded=0;labelBackgroundColor=none;fontColor=#EEEEEE;" vertex="1" parent="1">
          <mxGeometry x="217" y="274" width="50" height="30" as="geometry" />
        </mxCell>
        <mxCell id="XpY3fq0qodBO46SI2XsH-8" value="" style="ellipse;whiteSpace=wrap;html=1;labelBackgroundColor=none;fillColor=#09555B;strokeColor=#BAC8D3;fontColor=#EEEEEE;" vertex="1" parent="1">
          <mxGeometry x="202" y="388" width="80" height="40" as="geometry" />
        </mxCell>
        <mxCell id="XpY3fq0qodBO46SI2XsH-9" value="Post lost&lt;div&gt;item&lt;/div&gt;" style="text;html=1;align=center;verticalAlign=middle;whiteSpace=wrap;rounded=0;labelBackgroundColor=none;fontColor=#EEEEEE;" vertex="1" parent="1">
          <mxGeometry x="217" y="393" width="50" height="30" as="geometry" />
        </mxCell>
        <mxCell id="XpY3fq0qodBO46SI2XsH-11" value="" style="ellipse;whiteSpace=wrap;html=1;labelBackgroundColor=none;fillColor=#09555B;strokeColor=#BAC8D3;fontColor=#EEEEEE;" vertex="1" parent="1">
          <mxGeometry x="202" y="449" width="80" height="40" as="geometry" />
        </mxCell>
        <mxCell id="XpY3fq0qodBO46SI2XsH-12" value="Post found&lt;div&gt;item&lt;/div&gt;" style="text;html=1;align=center;verticalAlign=middle;whiteSpace=wrap;rounded=0;labelBackgroundColor=none;fontColor=#EEEEEE;" vertex="1" parent="1">
          <mxGeometry x="207" y="454" width="70" height="30" as="geometry" />
        </mxCell>
        <mxCell id="XpY3fq0qodBO46SI2XsH-13" value="" style="ellipse;whiteSpace=wrap;html=1;labelBackgroundColor=none;fillColor=#09555B;strokeColor=#BAC8D3;fontColor=#EEEEEE;" vertex="1" parent="1">
          <mxGeometry x="202" y="519" width="80" height="40" as="geometry" />
        </mxCell>
        <mxCell id="XpY3fq0qodBO46SI2XsH-14" value="Search item" style="text;html=1;align=center;verticalAlign=middle;whiteSpace=wrap;rounded=0;labelBackgroundColor=none;fontColor=#EEEEEE;" vertex="1" parent="1">
          <mxGeometry x="207" y="524" width="70" height="30" as="geometry" />
        </mxCell>
        <mxCell id="XpY3fq0qodBO46SI2XsH-20" value="" style="ellipse;whiteSpace=wrap;html=1;labelBackgroundColor=none;fillColor=#09555B;strokeColor=#BAC8D3;fontColor=#EEEEEE;" vertex="1" parent="1">
          <mxGeometry x="202" y="579" width="80" height="40" as="geometry" />
        </mxCell>
        <mxCell id="XpY3fq0qodBO46SI2XsH-21" value="Claim item" style="text;html=1;align=center;verticalAlign=middle;whiteSpace=wrap;rounded=0;labelBackgroundColor=none;fontColor=#EEEEEE;" vertex="1" parent="1">
          <mxGeometry x="207" y="584" width="65" height="30" as="geometry" />
        </mxCell>
        <mxCell id="XpY3fq0qodBO46SI2XsH-22" value="" style="ellipse;whiteSpace=wrap;html=1;labelBackgroundColor=none;fillColor=#09555B;strokeColor=#BAC8D3;fontColor=#EEEEEE;" vertex="1" parent="1">
          <mxGeometry x="202" y="659" width="80" height="40" as="geometry" />
        </mxCell>
        <mxCell id="XpY3fq0qodBO46SI2XsH-23" value="View Notification" style="text;html=1;align=center;verticalAlign=middle;whiteSpace=wrap;rounded=0;labelBackgroundColor=none;fontColor=#EEEEEE;" vertex="1" parent="1">
          <mxGeometry x="207" y="664" width="70" height="30" as="geometry" />
        </mxCell>
        <mxCell id="XpY3fq0qodBO46SI2XsH-24" value="" style="ellipse;whiteSpace=wrap;html=1;labelBackgroundColor=none;fillColor=#09555B;strokeColor=#BAC8D3;fontColor=#EEEEEE;" vertex="1" parent="1">
          <mxGeometry x="202" y="739" width="80" height="40" as="geometry" />
        </mxCell>
        <mxCell id="XpY3fq0qodBO46SI2XsH-25" value="Chat with finder" style="text;html=1;align=center;verticalAlign=middle;whiteSpace=wrap;rounded=0;labelBackgroundColor=none;fontColor=#EEEEEE;" vertex="1" parent="1">
          <mxGeometry x="207" y="744" width="70" height="30" as="geometry" />
        </mxCell>
        <mxCell id="XpY3fq0qodBO46SI2XsH-28" value="" style="ellipse;whiteSpace=wrap;html=1;labelBackgroundColor=none;fillColor=#09555B;strokeColor=#BAC8D3;fontColor=#EEEEEE;" vertex="1" parent="1">
          <mxGeometry x="202" y="799" width="80" height="40" as="geometry" />
        </mxCell>
        <mxCell id="XpY3fq0qodBO46SI2XsH-29" value="Manage&amp;nbsp;&lt;div&gt;Profile&lt;/div&gt;" style="text;html=1;align=center;verticalAlign=middle;whiteSpace=wrap;rounded=0;labelBackgroundColor=none;fontColor=#EEEEEE;" vertex="1" parent="1">
          <mxGeometry x="207" y="804" width="70" height="30" as="geometry" />
        </mxCell>
        <mxCell id="XpY3fq0qodBO46SI2XsH-30" value="" style="ellipse;whiteSpace=wrap;html=1;labelBackgroundColor=none;fillColor=#09555B;strokeColor=#BAC8D3;fontColor=#EEEEEE;" vertex="1" parent="1">
          <mxGeometry x="530" y="409" width="80" height="40" as="geometry" />
        </mxCell>
        <mxCell id="XpY3fq0qodBO46SI2XsH-31" value="Approve post" style="text;html=1;align=center;verticalAlign=middle;whiteSpace=wrap;rounded=0;labelBackgroundColor=none;fontColor=#EEEEEE;" vertex="1" parent="1">
          <mxGeometry x="545" y="414" width="50" height="30" as="geometry" />
        </mxCell>
        <mxCell id="XpY3fq0qodBO46SI2XsH-32" value="" style="ellipse;whiteSpace=wrap;html=1;labelBackgroundColor=none;fillColor=#09555B;strokeColor=#BAC8D3;fontColor=#EEEEEE;" vertex="1" parent="1">
          <mxGeometry x="530" y="579" width="80" height="40" as="geometry" />
        </mxCell>
        <mxCell id="XpY3fq0qodBO46SI2XsH-33" value="View&amp;nbsp;&lt;br&gt;Report" style="text;html=1;align=center;verticalAlign=middle;whiteSpace=wrap;rounded=0;labelBackgroundColor=none;fontColor=#EEEEEE;" vertex="1" parent="1">
          <mxGeometry x="545" y="584" width="50" height="30" as="geometry" />
        </mxCell>
        <mxCell id="XpY3fq0qodBO46SI2XsH-34" value="" style="ellipse;whiteSpace=wrap;html=1;labelBackgroundColor=none;fillColor=#09555B;strokeColor=#BAC8D3;fontColor=#EEEEEE;" vertex="1" parent="1">
          <mxGeometry x="530" y="649" width="80" height="40" as="geometry" />
        </mxCell>
        <mxCell id="XpY3fq0qodBO46SI2XsH-35" value="Verify Claim" style="text;html=1;align=center;verticalAlign=middle;whiteSpace=wrap;rounded=0;labelBackgroundColor=none;fontColor=#EEEEEE;" vertex="1" parent="1">
          <mxGeometry x="545" y="654" width="50" height="30" as="geometry" />
        </mxCell>
        <mxCell id="XpY3fq0qodBO46SI2XsH-36" value="" style="ellipse;whiteSpace=wrap;html=1;labelBackgroundColor=none;fillColor=#09555B;strokeColor=#BAC8D3;fontColor=#EEEEEE;" vertex="1" parent="1">
          <mxGeometry x="520" y="739" width="100" height="60" as="geometry" />
        </mxCell>
        <mxCell id="XpY3fq0qodBO46SI2XsH-37" value="Remove&lt;div&gt;inappropriate&lt;/div&gt;&lt;div&gt;Content&lt;/div&gt;" style="text;html=1;align=center;verticalAlign=middle;whiteSpace=wrap;rounded=0;labelBackgroundColor=none;fontColor=#EEEEEE;" vertex="1" parent="1">
          <mxGeometry x="545" y="754" width="50" height="30" as="geometry" />
        </mxCell>
        <mxCell id="XpY3fq0qodBO46SI2XsH-38" value="" style="ellipse;whiteSpace=wrap;html=1;labelBackgroundColor=none;fillColor=#09555B;strokeColor=#BAC8D3;fontColor=#EEEEEE;" vertex="1" parent="1">
          <mxGeometry x="530" y="499" width="80" height="40" as="geometry" />
        </mxCell>
        <mxCell id="XpY3fq0qodBO46SI2XsH-39" value="Manage&lt;div&gt;User&lt;/div&gt;" style="text;html=1;align=center;verticalAlign=middle;whiteSpace=wrap;rounded=0;labelBackgroundColor=none;fontColor=#EEEEEE;" vertex="1" parent="1">
          <mxGeometry x="545" y="504" width="50" height="30" as="geometry" />
        </mxCell>
        <mxCell id="XpY3fq0qodBO46SI2XsH-56" value="&amp;lt;&amp;lt;include&amp;gt;&amp;gt;" style="text;html=1;align=center;verticalAlign=middle;whiteSpace=wrap;rounded=0;labelBackgroundColor=none;fontColor=#EEEEEE;" vertex="1" parent="1">
          <mxGeometry x="267" y="339" width="60" height="30" as="geometry" />
        </mxCell>
        <mxCell id="XpY3fq0qodBO46SI2XsH-59" style="edgeStyle=orthogonalEdgeStyle;rounded=0;orthogonalLoop=1;jettySize=auto;html=1;exitX=0;exitY=0.5;exitDx=0;exitDy=0;dashed=1;labelBackgroundColor=none;strokeColor=#0B4D6A;fontColor=default;" edge="1" parent="1" source="XpY3fq0qodBO46SI2XsH-57">
          <mxGeometry relative="1" as="geometry">
            <mxPoint x="282.0000000000001" y="598.8888888888889" as="targetPoint" />
          </mxGeometry>
        </mxCell>
        <mxCell id="XpY3fq0qodBO46SI2XsH-57" value="" style="ellipse;whiteSpace=wrap;html=1;labelBackgroundColor=none;fillColor=#09555B;strokeColor=#BAC8D3;fontColor=#EEEEEE;" vertex="1" parent="1">
          <mxGeometry x="417" y="579" width="80" height="40" as="geometry" />
        </mxCell>
        <mxCell id="XpY3fq0qodBO46SI2XsH-58" value="Varify Ownership" style="text;html=1;align=center;verticalAlign=middle;whiteSpace=wrap;rounded=0;labelBackgroundColor=none;fontColor=#EEEEEE;" vertex="1" parent="1">
          <mxGeometry x="427" y="584" width="60" height="30" as="geometry" />
        </mxCell>
        <mxCell id="XpY3fq0qodBO46SI2XsH-60" value="&amp;lt;&amp;lt;extend&amp;gt;&amp;gt;" style="text;html=1;align=center;verticalAlign=middle;whiteSpace=wrap;rounded=0;labelBackgroundColor=none;fontColor=#EEEEEE;" vertex="1" parent="1">
          <mxGeometry x="322" y="559" width="60" height="30" as="geometry" />
        </mxCell>
        <mxCell id="XpY3fq0qodBO46SI2XsH-61" value="" style="swimlane;startSize=50;fillColor=#09555B;fontColor=#EEEEEE;strokeColor=#BAC8D3;labelBackgroundColor=none;" vertex="1" parent="1">
          <mxGeometry x="120" y="170" width="600" height="710" as="geometry" />
        </mxCell>
        <mxCell id="XpY3fq0qodBO46SI2XsH-62" value="&lt;font style=&quot;font-size: 20px;&quot;&gt;Lost and Found Management System(Findora)&lt;/font&gt;" style="text;html=1;align=center;verticalAlign=middle;whiteSpace=wrap;rounded=0;labelBackgroundColor=none;fontColor=#EEEEEE;" vertex="1" parent="XpY3fq0qodBO46SI2XsH-61">
          <mxGeometry x="70" width="470" height="50" as="geometry" />
        </mxCell>
        <mxCell id="XpY3fq0qodBO46SI2XsH-64" value="" style="rounded=0;whiteSpace=wrap;html=1;fillColor=#09555B;fontColor=#EEEEEE;strokeColor=#BAC8D3;labelBackgroundColor=none;" vertex="1" parent="1">
          <mxGeometry x="225" y="100" width="400" height="50" as="geometry" />
        </mxCell>
        <mxCell id="XpY3fq0qodBO46SI2XsH-65" value="&lt;font style=&quot;font-size: 25px;&quot;&gt;Use Case Diagram&lt;/font&gt;" style="text;html=1;align=center;verticalAlign=middle;whiteSpace=wrap;rounded=0;labelBackgroundColor=none;fontColor=#EEEEEE;" vertex="1" parent="1">
          <mxGeometry x="295" y="100" width="260" height="50" as="geometry" />
        </mxCell>
      </root>
    </mxGraphModel>
  </diagram>
</mxfile>
